<svg xmlns="http://www.w3.org/2000/svg" xmlns:xlink="http://www.w3.org/1999/xlink" viewBox="0 0 160.84 136.22"><defs><style>.cls-1{fill:url(#linear-gradient);}.cls-2{fill:url(#linear-gradient-2);}.cls-3{fill:url(#linear-gradient-3);}.cls-4{fill:#718695;}</style><linearGradient id="linear-gradient" x1="127.31" y1="88.58" x2="45.81" y2="20.92" gradientUnits="userSpaceOnUse"><stop offset="0" stop-color="#56b0cd"/><stop offset="1" stop-color="#31bebb"/></linearGradient><linearGradient id="linear-gradient-2" x1="123.2" y1="93.52" x2="41.7" y2="25.87" xlink:href="#linear-gradient"/><linearGradient id="linear-gradient-3" x1="102.3" y1="118.7" x2="20.81" y2="51.04" xlink:href="#linear-gradient"/></defs><title>Artboard 3</title><g id="Layer_2" data-name="Layer 2"><path class="cls-1" d="M108.66,29H87.48a7.52,7.52,0,0,0-2.14-2.9L97.41,8.84A4.6,4.6,0,1,0,95.26,7L82.87,24.72a7.49,7.49,0,0,0-2.42-.4,7.71,7.71,0,0,0-3,.63h0l-6.31-9.43a4.61,4.61,0,1,0-2,1.73l6.15,9.17h0A7.49,7.49,0,0,0,73.42,29H52.18a10.33,10.33,0,0,0-10.3,10.3V79.44a10.32,10.32,0,0,0,10.3,10.29h56.48A10.32,10.32,0,0,0,119,79.44V39.3A10.33,10.33,0,0,0,108.66,29ZM57.83,85.46a3.69,3.69,0,1,1,3.68-3.68A3.69,3.69,0,0,1,57.83,85.46ZM94.15,82.4a1,1,0,0,1-.94.94H69A.94.94,0,0,1,68,82.4v-.2a1,1,0,0,1,.94-.94H93.21a1,1,0,0,1,.94.94ZM112.31,64A10.32,10.32,0,0,1,102,74.3H59.11A10.32,10.32,0,0,1,48.81,64V45.79a10.33,10.33,0,0,1,10.3-10.3H102a10.33,10.33,0,0,1,10.3,10.3Z"/><path class="cls-2" d="M87.1,52.15,85,50.92l-7.29-4.21-2.13-1.23c-2-1.15-3.65-.21-3.65,2.11V60.93c0,2.32,1.64,3.26,3.65,2.11l2.13-1.24L85,57.59l2.13-1.23C89.11,55.21,89.11,53.31,87.1,52.15Z"/><path class="cls-3" d="M57.83,79.55a2.23,2.23,0,1,0,2.23,2.23A2.23,2.23,0,0,0,57.83,79.55Z"/><path class="cls-4" d="M16.17,109.76a5.23,5.23,0,0,0-2-1.72,6.12,6.12,0,0,0-2.85-.69,6.47,6.47,0,0,0-5.07,2.3,7.24,7.24,0,0,0-1.36,2.43,9.15,9.15,0,0,0,0,5.79,7.09,7.09,0,0,0,1.36,2.42A6.45,6.45,0,0,0,8.42,122a6.62,6.62,0,0,0,2.94.63,6.68,6.68,0,0,0,2.92-.63,6,6,0,0,0,2.16-1.69l2.8,2.54a9,9,0,0,1-3.34,2.43,11.28,11.28,0,0,1-4.54.87,12.48,12.48,0,0,1-4.52-.8,10.93,10.93,0,0,1-3.59-2.25,10.39,10.39,0,0,1-2.38-3.5,12.55,12.55,0,0,1,0-9.13,10.24,10.24,0,0,1,2.36-3.52,10.47,10.47,0,0,1,3.58-2.27,12.21,12.21,0,0,1,4.48-.8,11.64,11.64,0,0,1,4.43.89,8.05,8.05,0,0,1,3.5,2.58Z"/><path class="cls-4" d="M28.28,96.8a2.49,2.49,0,0,1-.81,1.91,2.78,2.78,0,0,1-2,.76,2.65,2.65,0,0,1-1.94-.78,2.55,2.55,0,0,1-.8-1.89,2.62,2.62,0,0,1,.8-1.94,2.65,2.65,0,0,1,1.94-.78,2.76,2.76,0,0,1,2,.78A2.59,2.59,0,0,1,28.28,96.8Zm-.66,28.73H23.43V104.41h4.19Z"/><path class="cls-4" d="M38.71,104.41c.06.54.1,1.14.13,1.81s0,1.22,0,1.67H39a6.3,6.3,0,0,1,1.09-1.58A8,8,0,0,1,41.69,105a7.55,7.55,0,0,1,2-.87,7.8,7.8,0,0,1,2.23-.31,8.25,8.25,0,0,1,3.52.69,7.19,7.19,0,0,1,2.45,1.84,7.56,7.56,0,0,1,1.44,2.72,11.28,11.28,0,0,1,.47,3.34v13.1H49.57V113.81a13.81,13.81,0,0,0-.2-2.45,5.81,5.81,0,0,0-.73-2,4.09,4.09,0,0,0-1.47-1.42,4.78,4.78,0,0,0-2.41-.54,5.07,5.07,0,0,0-4.07,1.9,7.6,7.6,0,0,0-1.58,5v11.23H34.92V109c0-.57,0-1.29,0-2.18s-.08-1.68-.14-2.37Z"/><path class="cls-4" d="M80.57,114.79v.72a5.74,5.74,0,0,1,0,.71H63.74a6.29,6.29,0,0,0,.6,2.5,6.55,6.55,0,0,0,1.49,2A6.79,6.79,0,0,0,68,122.1a7.49,7.49,0,0,0,6.3-.45,7.47,7.47,0,0,0,2.45-2.27l2.94,2.36a10.43,10.43,0,0,1-4,3.31,12.81,12.81,0,0,1-9.56.26,10.52,10.52,0,0,1-3.52-2.25,10.37,10.37,0,0,1-2.31-3.5,11.69,11.69,0,0,1-.85-4.54,12.17,12.17,0,0,1,.83-4.53,10.23,10.23,0,0,1,2.3-3.54,10.49,10.49,0,0,1,3.48-2.29,11.28,11.28,0,0,1,4.33-.82,11.44,11.44,0,0,1,4.22.75,8.82,8.82,0,0,1,3.21,2.19,9.85,9.85,0,0,1,2,3.45A13.56,13.56,0,0,1,80.57,114.79ZM76.3,113.1a8.09,8.09,0,0,0-.42-2.34,5.42,5.42,0,0,0-1.12-1.89,5.18,5.18,0,0,0-1.82-1.27,6.53,6.53,0,0,0-2.56-.47,6.76,6.76,0,0,0-2.52.47,6.39,6.39,0,0,0-2,1.27,6.55,6.55,0,0,0-1.43,1.89,6.09,6.09,0,0,0-.64,2.34Z"/><path class="cls-4" d="M99.24,111.85a4.19,4.19,0,0,0-1.43-3.49A5.87,5.87,0,0,0,94,107.22a8.36,8.36,0,0,0-3.37.69A8.7,8.7,0,0,0,88,109.67L85.79,107a11.31,11.31,0,0,1,3.8-2.32,13.75,13.75,0,0,1,4.84-.84,10.92,10.92,0,0,1,3.94.64,7.49,7.49,0,0,1,2.74,1.76,7.14,7.14,0,0,1,1.6,2.63,9.6,9.6,0,0,1,.54,3.25v9.22q0,1.06.06,2.25a12,12,0,0,0,.25,1.94H99.77a13.05,13.05,0,0,1-.35-3h-.14a8.14,8.14,0,0,1-2.91,2.63,8.85,8.85,0,0,1-4.17.93,11.11,11.11,0,0,1-2.61-.33,7.63,7.63,0,0,1-2.47-1.09,6.28,6.28,0,0,1-1.85-2,5.94,5.94,0,0,1-.73-3.07,5.43,5.43,0,0,1,1.29-3.81,8.22,8.22,0,0,1,3.39-2.14,18.7,18.7,0,0,1,4.72-1c1.75-.15,3.52-.23,5.3-.23Zm-1,3.61c-1,0-2.11.05-3.23.13a14.66,14.66,0,0,0-3,.54,5.76,5.76,0,0,0-2.25,1.2,2.73,2.73,0,0,0-.89,2.14,3,3,0,0,0,.37,1.56,3.08,3.08,0,0,0,1,1,3.82,3.82,0,0,0,1.38.56,7.93,7.93,0,0,0,1.56.16A5.78,5.78,0,0,0,97.66,121a6.42,6.42,0,0,0,1.58-4.44v-1.11Z"/><path class="cls-4" d="M114.43,136.22h-4.19V104.41h4.1v3.3h.13a7.78,7.78,0,0,1,3-2.78,9.34,9.34,0,0,1,4.6-1.09,10.66,10.66,0,0,1,4.29.84,9.9,9.9,0,0,1,3.33,2.36,10.61,10.61,0,0,1,2.15,3.54,12.86,12.86,0,0,1,0,8.71,10.67,10.67,0,0,1-2.13,3.57,9.89,9.89,0,0,1-3.33,2.38,10.7,10.7,0,0,1-4.4.87,9.58,9.58,0,0,1-4.26-1,7.8,7.8,0,0,1-3.16-2.76h-.13Zm13.89-21.29a9.43,9.43,0,0,0-.44-2.85,7.21,7.21,0,0,0-1.34-2.45,6.38,6.38,0,0,0-2.2-1.7,7.16,7.16,0,0,0-3-.62,6.68,6.68,0,0,0-5.17,2.32,7.83,7.83,0,0,0-1.45,2.45,8.47,8.47,0,0,0,0,5.79,7.47,7.47,0,0,0,1.45,2.42,6.82,6.82,0,0,0,2.25,1.67,6.65,6.65,0,0,0,2.92.63,6.88,6.88,0,0,0,3-.65,6.66,6.66,0,0,0,2.2-1.71,7.3,7.3,0,0,0,1.34-2.45A9.43,9.43,0,0,0,128.32,114.93Z"/><path class="cls-4" d="M142.67,136.22h-4.19V104.41h4.1v3.3h.13a7.78,7.78,0,0,1,3-2.78,9.34,9.34,0,0,1,4.6-1.09,10.66,10.66,0,0,1,4.29.84,10,10,0,0,1,3.33,2.36,10.61,10.61,0,0,1,2.15,3.54,12.86,12.86,0,0,1,0,8.71,10.67,10.67,0,0,1-2.13,3.57,9.89,9.89,0,0,1-3.33,2.38,10.73,10.73,0,0,1-4.4.87,9.65,9.65,0,0,1-4.27-1,7.83,7.83,0,0,1-3.15-2.76h-.13Zm13.89-21.29a9.43,9.43,0,0,0-.44-2.85,7.21,7.21,0,0,0-1.34-2.45,6.38,6.38,0,0,0-2.2-1.7,7.16,7.16,0,0,0-3.05-.62,6.68,6.68,0,0,0-5.17,2.32,7.64,7.64,0,0,0-1.45,2.45,8.47,8.47,0,0,0,0,5.79,7.3,7.3,0,0,0,1.45,2.42,6.82,6.82,0,0,0,2.25,1.67,6.65,6.65,0,0,0,2.92.63,6.88,6.88,0,0,0,3.05-.65,6.66,6.66,0,0,0,2.2-1.71,7.3,7.3,0,0,0,1.34-2.45A9.43,9.43,0,0,0,156.56,114.93Z"/></g></svg>